<svg xmlns="http://www.w3.org/2000/svg" width="110" height="110" fill="none" viewBox="0 0 110 110"><g filter="url(#filter0_b)"><path fill="#fff" fill-opacity=".2" fill-rule="evenodd" d="M55 110C85.3757 110 110 85.3757 110 55C110 24.6243 85.3757 0 55 0C24.6243 0 0 24.6243 0 55C0 85.3757 24.6243 110 55 110Z" clip-rule="evenodd"/></g><path fill="#fff" fill-rule="evenodd" d="M90.0999 55C90.0999 74.3852 74.3851 90.1 54.9999 90.1C35.6147 90.1 19.8999 74.3852 19.8999 55C19.8999 35.6148 35.6147 19.9 54.9999 19.9C74.3851 19.9 90.0999 35.6148 90.0999 55ZM47.1999 65.4L67.9999 55L47.1999 44.6V65.4Z" clip-rule="evenodd"/><defs><filter id="filter0_b" width="142.619" height="142.619" x="-16.31" y="-16.31" color-interpolation-filters="sRGB" filterUnits="userSpaceOnUse"><feFlood flood-opacity="0" result="BackgroundImageFix"/><feGaussianBlur in="BackgroundImage" stdDeviation="8.155"/><feComposite in2="SourceAlpha" operator="in" result="effect1_backgroundBlur"/><feBlend in="SourceGraphic" in2="effect1_backgroundBlur" mode="normal" result="shape"/></filter></defs></svg>